<svg xmlns="http://www.w3.org/2000/svg" viewBox="0 0 64 64" fill="none">
  <defs>
    <linearGradient id="g" x1="0" y1="0" x2="64" y2="64" gradientUnits="userSpaceOnUse">
      <stop offset="0%" stop-color="#0891B2"/>
      <stop offset="100%" stop-color="#059669"/>
    </linearGradient>
    <linearGradient id="g2" x1="0" y1="0" x2="64" y2="64" gradientUnits="userSpaceOnUse">
      <stop offset="0%" stop-color="#06B6D4"/>
      <stop offset="100%" stop-color="#10B981"/>
    </linearGradient>
  </defs>
  <!-- Rounded square background -->
  <rect width="64" height="64" rx="16" fill="url(#g)"/>
  <!-- Heart + Pulse icon -->
  <path d="M32 50C32 50 14 38 14 26c0-5.5 4.5-10 10-10 3.5 0 6.5 1.8 8 4.5C33.5 17.8 36.5 16 40 16c5.5 0 10 4.5 10 10C50 38 32 50 32 50z" fill="white" opacity="0.15"/>
  <!-- ECG Pulse line -->
  <path d="M12 32h10l3-8 4 16 4-12 3 4h16" stroke="white" stroke-width="3" stroke-linecap="round" stroke-linejoin="round" fill="none"/>
  <!-- Leaf accent -->
  <path d="M44 18c0 0-4 2-6 6s-1 8-1 8c0 0 4-2 6-6s1-8 1-8z" fill="white" opacity="0.4"/>
  <path d="M44 18c-3 3-5 7-5.5 10" stroke="white" stroke-width="1" stroke-linecap="round" opacity="0.5" fill="none"/>
</svg>